<?xml version="1.0" encoding="UTF-8"?>
<svg id="Layer_2" data-name="Layer 2" xmlns="http://www.w3.org/2000/svg" viewBox="0 0 252.2 203">
  <g id="Layer_1-2" data-name="Layer 1">
    <path d="m176.95,0c3.6.4,7.2.83,10.8,1.21,8.09.85,15.68,3.52,23.32,6.13,7.15,2.44,14.36,4.85,21.7,6.58,4.97,1.17,10.22,1.28,15.36,1.6,3.9.24,4.05.18,4.05,4.2,0,26.53,0,53.05,0,79.58,0,33.46,0,66.91.01,100.37,0,1.45-.02,2.79-1.7,3.34h-1.68c-.48-.07-.96-.19-1.45-.21-10.47-.5-20.98-.63-31.41-1.58-9.13-.83-18.25-2.23-27.25-3.99-8.34-1.63-16.73-2.28-25.15-2.54-7.76-.24-14.69,2.68-21.26,6.61-1.29.77-2.95,1.09-4.48,1.24-3.06.3-6.14.33-9.21.47h-16.81c-2.77-4.1-6.96-5.82-11.55-6.67-10.88-2-21.88-1.87-32.79-.75-12.04,1.24-23.98,3.41-35.99,4.92-7.46.94-14.98,1.4-22.47,2.06-2.01.18-4.03.29-6.05.43h-1.68c-.42-1.08-1.21-2.16-1.22-3.24C-.01,173.5,0,147.25,0,121c0-33.32,0-66.65,0-99.97,0-1.05.02-2.1.01-3.15,0-1.54.76-2.28,2.3-2.32,8.4-.24,16.56-2.08,24.7-3.97,12.91-3.01,25.76-6.24,38.68-9.2,4.19-.96,8.52-1.33,12.78-1.99.47-.07.93-.26,1.39-.39,2.52,0,5.04,0,7.57,0,4.41.57,8.87.88,13.22,1.75,9.45,1.88,18.07,5.49,24.44,13.14.17-.09.34-.13.41-.23,5.8-7.84,14.04-11.36,23.28-12.94,4.45-.76,8.97-1.16,13.45-1.72,4.9,0,9.81,0,14.71,0ZM8.45,182.83c1.06,0,1.76,0,2.45,0,10.08-.11,19.97-1.89,29.88-3.5,13.65-2.21,27.29-4.54,40.97-6.6,7.84-1.18,15.74-1.18,23.56.45,6.86,1.43,12.96,4.26,17.24,10.1,1.04,1.42,1.94,2.94,2.8,4.26,0-9.55,0-19.19,0-28.83-.03-29.62-.04-59.25-.1-88.87-.03-16.1-.13-32.2-.21-48.31,0-.62.09-1.4-.23-1.83-3-4.06-6.59-7.48-11.04-9.96-8.79-4.89-18.49-6.07-28.21-6.23-5.84-.1-11.8,1.04-17.56,2.28-11.94,2.57-23.75,5.75-35.69,8.34-7.52,1.63-15.17,2.7-22.77,3.91-1.38.22-1.48.87-1.46,1.97.1,9.37.22,18.75.24,28.12.07,39.43.1,78.86.14,118.28,0,5.38,0,10.76,0,16.42ZM243.76,18.54c-10.71-.53-20.94-3.04-30.82-6.84-12.58-4.83-25.44-8.28-38.97-8.25-7.74.02-15.5.47-23.2,1.22-9.42.92-17.44,4.62-22.28,13.37-.53.96-1.21,2.03-1.22,3.05-.08,6.72.03,13.44.05,20.16.12,48.32.24,96.63.37,144.95,0,.57.09,1.14.17,2.12,2.5-4.66,5.58-8.2,9.58-10.91,6.67-4.52,14.25-6.22,22.08-6.71,10.5-.65,20.97.23,31.28,2.18,14.4,2.74,28.7,5.94,43.07,8.84,3.16.64,6.4.86,9.89,1.31V18.54Zm2.63.03c-.04.72-.09,1.34-.1,1.96-.13,34.02-.27,68.04-.37,102.06-.06,19.96-.06,39.92-.02,59.89,0,1.9-.51,2.76-2.5,2.48-5.64-.78-11.36-1.22-16.93-2.34-16.21-3.25-32.2-7.57-48.73-9.16-7.98-.77-15.91-1.14-23.83.16-12.59,2.07-22.13,8-26.09,20.91-.18.6-.9,1.03-1.37,1.55-.4-.58-1-1.11-1.18-1.76-1.24-4.25-2.93-8.22-6.05-11.51-5.62-5.92-12.94-7.92-20.6-8.25-7.16-.31-14.45-.1-21.54.86-12.47,1.69-24.84,4.07-37.23,6.27-10.17,1.8-20.35,3.49-30.73,3.28-2.76-.06-2.77.02-2.77-2.83-.14-53.77-.28-107.55-.42-161.32,0-.75,0-1.49,0-2.07-2.59-.8-2.77.51-2.77,2.35.03,58.77.02,117.53.02,176.3v2.14c.58.05.99.14,1.39.11,10.15-.86,20.32-1.5,30.44-2.66,10.99-1.26,21.9-3.16,32.89-4.48,10.44-1.26,20.94-1.18,31.34.47,5.11.81,10.11,2.13,13.71,6.36.28.33.97.44,1.47.44,7.35-.03,14.7-.16,22.06-.13,1.98,0,3.63-.51,5.29-1.54,5.62-3.5,11.67-6.11,18.33-6.38,10.92-.44,21.69.91,32.43,3,8.12,1.58,16.35,2.63,24.57,3.59,5.62.66,11.3.86,16.95,1.05,4.94.17,9.89.04,14.86.04V18.71c-.89-.05-1.63-.1-2.5-.15Z"/>
  </g>
</svg>