<?xml version="1.0" encoding="UTF-8"?>
<svg id="Layer_2" data-name="Layer 2" xmlns="http://www.w3.org/2000/svg" viewBox="0 0 280 273">
  <g id="Layer_1-2" data-name="Layer 1">
    <path d="m166.29,41.16c7.68-.98,14.41-1.75,21.12-2.73,6.98-1.01,8.27.02,8.27,7.04,0,3.5.02,7,.07,10.49,0,.47.24.94.55,2.1,5.63,0,11.41.15,17.18-.05,4.68-.16,6.54,1.72,6.54,6.48-.09,55.64-.08,111.29,0,166.93,0,4.68-1.78,6.54-6.52,6.53-53.64-.08-107.29-.04-160.93-.06-5.66,0-6.56-.98-6.56-6.79-.02-47.48-.03-94.96-.04-142.44,0-8.15.29-16.31-.08-24.44-.22-4.91,1.51-7.06,6.28-8.3,26.04-6.74,52-13.76,77.98-20.74,9.45-2.54,18.84-5.27,28.29-7.81,6.44-1.73,7.82-.64,7.87,5.86.02,2.3,0,4.6,0,7.92ZM53.96,228.28c2.12-.48,3.71-.77,5.27-1.19,31.27-8.51,62.52-17.11,93.83-25.47,3.86-1.03,5.22-2.43,5.21-6.64-.06-43.77.14-87.54.26-131.31.03-9.28,0-18.56,0-28.44-2.71.64-4.78,1.04-6.8,1.61-9.56,2.72-19.09,5.58-28.67,8.23-21.57,5.96-43.14,11.91-64.77,17.66-3.37.9-4.54,2.28-4.39,5.78.29,6.96.08,13.95.08,20.92,0,44.47-.01,88.93-.02,133.4,0,1.64,0,3.28,0,5.46Zm62.34-8.28c.17.23.35.47.52.7,21.59-2.9,43.16-5.92,64.78-8.59,4.42-.55,6.21-1.72,6.15-6.59-.28-22.82-.12-45.65-.13-68.47,0-10.7-.1-21.4-.04-32.1.04-7.48.36-14.96.41-22.45.07-11.77.02-23.54.02-36.33-6.97.82-12.83,1.58-18.7,2.17-2.76.28-3.67,1.67-3.5,4.29.27,4.31.56,8.64.54,12.95-.1,20.6-.41,41.19-.44,61.79-.02,21.65.34,43.29.26,64.94-.06,16.81,2.43,13.14-13.38,17.65-12.13,3.45-24.32,6.71-36.48,10.06Zm-.34,9.08c.03.28.06.56.09.85,1.66,0,3.31,0,4.97,0,28.16,0,56.32,0,84.48.01q6.46,0,6.47-6.5c0-50.49,0-100.98,0-151.46,0-1.77,0-3.55,0-5.47h-16.27c0,7.66,0,14.92,0,22.18,0,39.49-.02,78.98-.03,118.47,0,2.17.05,4.33,0,6.5-.06,3.13-1.55,4.87-4.78,5.29-12.54,1.62-25.07,3.33-37.6,5.03-12.45,1.69-24.89,3.41-37.33,5.11Z"/>
  </g>
</svg>